<svg width="97" height="77" viewBox="0 0 97 77" fill="none" xmlns="http://www.w3.org/2000/svg">
<path d="M46.9167 35.2917V9.625H14.8333V22.4583H2V67.375H27.6667V54.5417H34.0833V67.375H59.75V35.2917H46.9167ZM14.8333 48.125H8.41667V41.7083H14.8333V48.125ZM14.8333 35.2917H8.41667V28.875H14.8333V35.2917ZM27.6667 48.125H21.25V41.7083H27.6667V48.125ZM27.6667 35.2917H21.25V28.875H27.6667V35.2917ZM27.6667 22.4583H21.25V16.0417H27.6667V22.4583ZM40.5 48.125H34.0833V41.7083H40.5V48.125ZM40.5 35.2917H34.0833V28.875H40.5V35.2917ZM40.5 22.4583H34.0833V16.0417H40.5V22.4583ZM53.3333 48.125H46.9167V41.7083H53.3333V48.125Z" stroke="white" stroke-width="2"/>
</svg>
